# xmcd
# 
# Track frame offsets:
#     150
#     25082
#     54229
#     76282
#     100394
#     122282
#     155427
#     179538
#     205830
#     230745
#     256491
#     288514
# 
# Disc length: 4126
# 
# Revision: 1
# Processed by: cddbd v1.5.2PL0 Copyright (c) Steve Scherf et al.
# Submitted via: fre:ac v1.0.17
# 
DISCID=9d101c0c
DTITLE=The Juju Orchestra - Bossa Nova Is Not A Crime
DYEAR=2007
DGENRE=Jazz
TTITLE0=This Is Not A Tango
TTITLE1=Nao Posso Demora Featuring Katia B
TTITLE2=What Is Hip? Featuring Carolyn Leonhart and Terry Callier
TTITLE3=Take Four
TTITLE4=Do It Again Featuring Carolyn Leonhart and Robert Smith
TTITLE5=Kind Of Latin Rhythm
TTITLE6=El Bravo
TTITLE7=Funky Nassau
TTITLE8=What Is Hip? - Mo' Horizons Latinstyle
TTITLE9=What Is Hip? - Mo' Horizons Hipstyle
TTITLE10=Kind Of Latin Rhythm - Smoove Remix
TTITLE11=Kind Of Latin Rhythm - Dubben Mix
EXTD=YEAR: 2007
EXTT0=
EXTT1=
EXTT2=
EXTT3=
EXTT4=
EXTT5=
EXTT6=
EXTT7=
EXTT8=
EXTT9=
EXTT10=
EXTT11=
PLAYORDER=
